<mxfile host="app.diagrams.net" modified="2023-07-06T06:24:52.251Z" agent="Mozilla/5.0 (Macintosh; Intel Mac OS X 10_15_7) AppleWebKit/537.36 (KHTML, like Gecko) Chrome/113.0.0.0 Safari/537.36" etag="fZ2cUOUnzaLrT_8SPwM1" version="21.3.7" type="github">
  <diagram name="第 1 页" id="F-nfB5zhbIb_cgtPWfh-">
    <mxGraphModel dx="1026" dy="692" grid="1" gridSize="10" guides="1" tooltips="1" connect="1" arrows="1" fold="1" page="1" pageScale="1" pageWidth="827" pageHeight="1169" math="0" shadow="0">
      <root>
        <mxCell id="0" />
        <mxCell id="1" parent="0" />
        <mxCell id="9wFDw3RkWv6zLkpVCdXA-110" value="" style="rounded=0;whiteSpace=wrap;html=1;dashed=1;" vertex="1" parent="1">
          <mxGeometry x="690" y="220" width="250" height="225" as="geometry" />
        </mxCell>
        <mxCell id="9wFDw3RkWv6zLkpVCdXA-103" style="edgeStyle=orthogonalEdgeStyle;rounded=0;orthogonalLoop=1;jettySize=auto;html=1;entryX=0.5;entryY=0;entryDx=0;entryDy=0;" edge="1" parent="1" source="9wFDw3RkWv6zLkpVCdXA-79" target="9wFDw3RkWv6zLkpVCdXA-81">
          <mxGeometry relative="1" as="geometry" />
        </mxCell>
        <mxCell id="9wFDw3RkWv6zLkpVCdXA-79" value="" style="rounded=0;whiteSpace=wrap;html=1;dashed=1;" vertex="1" parent="1">
          <mxGeometry x="140" y="360" width="500" height="100" as="geometry" />
        </mxCell>
        <mxCell id="9wFDw3RkWv6zLkpVCdXA-117" style="edgeStyle=orthogonalEdgeStyle;rounded=0;orthogonalLoop=1;jettySize=auto;html=1;entryX=0.008;entryY=0.222;entryDx=0;entryDy=0;entryPerimeter=0;" edge="1" parent="1" source="9wFDw3RkWv6zLkpVCdXA-72" target="9wFDw3RkWv6zLkpVCdXA-110">
          <mxGeometry relative="1" as="geometry" />
        </mxCell>
        <mxCell id="9wFDw3RkWv6zLkpVCdXA-72" value="" style="rounded=0;whiteSpace=wrap;html=1;dashed=1;" vertex="1" parent="1">
          <mxGeometry x="140" y="220" width="500" height="100" as="geometry" />
        </mxCell>
        <mxCell id="9wFDw3RkWv6zLkpVCdXA-4" value="媒体点击事件" style="text;html=1;align=center;verticalAlign=middle;resizable=0;points=[];autosize=1;strokeColor=none;fillColor=none;" vertex="1" parent="1">
          <mxGeometry x="210" y="10" width="100" height="30" as="geometry" />
        </mxCell>
        <mxCell id="9wFDw3RkWv6zLkpVCdXA-5" value="陌陌用户事件" style="text;html=1;align=center;verticalAlign=middle;resizable=0;points=[];autosize=1;strokeColor=none;fillColor=none;" vertex="1" parent="1">
          <mxGeometry x="474" y="10" width="100" height="30" as="geometry" />
        </mxCell>
        <mxCell id="9wFDw3RkWv6zLkpVCdXA-28" style="edgeStyle=orthogonalEdgeStyle;rounded=0;orthogonalLoop=1;jettySize=auto;html=1;entryX=1;entryY=0.5;entryDx=0;entryDy=0;entryPerimeter=0;" edge="1" parent="1" source="9wFDw3RkWv6zLkpVCdXA-6" target="9wFDw3RkWv6zLkpVCdXA-27">
          <mxGeometry relative="1" as="geometry" />
        </mxCell>
        <mxCell id="9wFDw3RkWv6zLkpVCdXA-73" value="" style="edgeStyle=orthogonalEdgeStyle;rounded=0;orthogonalLoop=1;jettySize=auto;html=1;" edge="1" parent="1" source="9wFDw3RkWv6zLkpVCdXA-6" target="9wFDw3RkWv6zLkpVCdXA-55">
          <mxGeometry relative="1" as="geometry" />
        </mxCell>
        <mxCell id="9wFDw3RkWv6zLkpVCdXA-75" value="kafka" style="edgeLabel;html=1;align=center;verticalAlign=middle;resizable=0;points=[];" vertex="1" connectable="0" parent="9wFDw3RkWv6zLkpVCdXA-73">
          <mxGeometry x="-0.125" y="2" relative="1" as="geometry">
            <mxPoint as="offset" />
          </mxGeometry>
        </mxCell>
        <mxCell id="9wFDw3RkWv6zLkpVCdXA-6" value="api&amp;nbsp; &amp;nbsp;clicknotify" style="rounded=1;whiteSpace=wrap;html=1;" vertex="1" parent="1">
          <mxGeometry x="190" y="240" width="120" height="60" as="geometry" />
        </mxCell>
        <mxCell id="9wFDw3RkWv6zLkpVCdXA-74" value="" style="edgeStyle=orthogonalEdgeStyle;rounded=0;orthogonalLoop=1;jettySize=auto;html=1;" edge="1" parent="1" source="9wFDw3RkWv6zLkpVCdXA-7" target="9wFDw3RkWv6zLkpVCdXA-56">
          <mxGeometry relative="1" as="geometry" />
        </mxCell>
        <mxCell id="9wFDw3RkWv6zLkpVCdXA-76" value="kafka" style="edgeLabel;html=1;align=center;verticalAlign=middle;resizable=0;points=[];" vertex="1" connectable="0" parent="9wFDw3RkWv6zLkpVCdXA-74">
          <mxGeometry x="-0.125" relative="1" as="geometry">
            <mxPoint as="offset" />
          </mxGeometry>
        </mxCell>
        <mxCell id="9wFDw3RkWv6zLkpVCdXA-7" value="api&amp;nbsp; &amp;nbsp;run" style="rounded=1;whiteSpace=wrap;html=1;" vertex="1" parent="1">
          <mxGeometry x="464" y="240" width="120" height="60" as="geometry" />
        </mxCell>
        <mxCell id="9wFDw3RkWv6zLkpVCdXA-25" style="edgeStyle=orthogonalEdgeStyle;rounded=0;orthogonalLoop=1;jettySize=auto;html=1;entryX=0.5;entryY=0;entryDx=0;entryDy=0;" edge="1" parent="1" source="9wFDw3RkWv6zLkpVCdXA-8" target="9wFDw3RkWv6zLkpVCdXA-6">
          <mxGeometry relative="1" as="geometry" />
        </mxCell>
        <mxCell id="9wFDw3RkWv6zLkpVCdXA-8" value="" style="rounded=0;whiteSpace=wrap;html=1;" vertex="1" parent="1">
          <mxGeometry x="140" y="40" width="220" height="70" as="geometry" />
        </mxCell>
        <mxCell id="9wFDw3RkWv6zLkpVCdXA-9" value="头条" style="rounded=0;whiteSpace=wrap;html=1;" vertex="1" parent="1">
          <mxGeometry x="150" y="55" width="60" height="30" as="geometry" />
        </mxCell>
        <mxCell id="9wFDw3RkWv6zLkpVCdXA-10" value="快手" style="rounded=0;whiteSpace=wrap;html=1;" vertex="1" parent="1">
          <mxGeometry x="220" y="55" width="60" height="30" as="geometry" />
        </mxCell>
        <mxCell id="9wFDw3RkWv6zLkpVCdXA-11" value="广点通" style="rounded=0;whiteSpace=wrap;html=1;" vertex="1" parent="1">
          <mxGeometry x="290" y="55" width="60" height="30" as="geometry" />
        </mxCell>
        <mxCell id="9wFDw3RkWv6zLkpVCdXA-26" style="edgeStyle=orthogonalEdgeStyle;rounded=0;orthogonalLoop=1;jettySize=auto;html=1;entryX=0.5;entryY=0;entryDx=0;entryDy=0;" edge="1" parent="1" source="9wFDw3RkWv6zLkpVCdXA-12" target="9wFDw3RkWv6zLkpVCdXA-7">
          <mxGeometry relative="1" as="geometry" />
        </mxCell>
        <mxCell id="9wFDw3RkWv6zLkpVCdXA-12" value="" style="rounded=0;whiteSpace=wrap;html=1;" vertex="1" parent="1">
          <mxGeometry x="414" y="40" width="220" height="70" as="geometry" />
        </mxCell>
        <mxCell id="9wFDw3RkWv6zLkpVCdXA-13" value="激活" style="rounded=0;whiteSpace=wrap;html=1;" vertex="1" parent="1">
          <mxGeometry x="424" y="55" width="60" height="30" as="geometry" />
        </mxCell>
        <mxCell id="9wFDw3RkWv6zLkpVCdXA-14" value="注册" style="rounded=0;whiteSpace=wrap;html=1;" vertex="1" parent="1">
          <mxGeometry x="494" y="55" width="60" height="30" as="geometry" />
        </mxCell>
        <mxCell id="9wFDw3RkWv6zLkpVCdXA-15" value="付费" style="rounded=0;whiteSpace=wrap;html=1;" vertex="1" parent="1">
          <mxGeometry x="564" y="55" width="60" height="30" as="geometry" />
        </mxCell>
        <mxCell id="9wFDw3RkWv6zLkpVCdXA-80" style="edgeStyle=orthogonalEdgeStyle;rounded=0;orthogonalLoop=1;jettySize=auto;html=1;" edge="1" parent="1" source="9wFDw3RkWv6zLkpVCdXA-16">
          <mxGeometry relative="1" as="geometry">
            <mxPoint x="640" y="75" as="targetPoint" />
          </mxGeometry>
        </mxCell>
        <mxCell id="9wFDw3RkWv6zLkpVCdXA-16" value="" style="rounded=0;whiteSpace=wrap;html=1;" vertex="1" parent="1">
          <mxGeometry x="680" y="40" width="220" height="70" as="geometry" />
        </mxCell>
        <mxCell id="9wFDw3RkWv6zLkpVCdXA-18" value="goback" style="rounded=0;whiteSpace=wrap;html=1;" vertex="1" parent="1">
          <mxGeometry x="690" y="55" width="60" height="30" as="geometry" />
        </mxCell>
        <mxCell id="9wFDw3RkWv6zLkpVCdXA-19" value="datehouse" style="rounded=0;whiteSpace=wrap;html=1;" vertex="1" parent="1">
          <mxGeometry x="760" y="55" width="60" height="30" as="geometry" />
        </mxCell>
        <mxCell id="9wFDw3RkWv6zLkpVCdXA-20" value="moa" style="rounded=0;whiteSpace=wrap;html=1;" vertex="1" parent="1">
          <mxGeometry x="830" y="55" width="60" height="30" as="geometry" />
        </mxCell>
        <mxCell id="9wFDw3RkWv6zLkpVCdXA-22" value="……" style="text;html=1;strokeColor=none;fillColor=none;align=center;verticalAlign=middle;whiteSpace=wrap;rounded=0;" vertex="1" parent="1">
          <mxGeometry x="220" y="80" width="60" height="30" as="geometry" />
        </mxCell>
        <mxCell id="9wFDw3RkWv6zLkpVCdXA-23" value="……" style="text;html=1;strokeColor=none;fillColor=none;align=center;verticalAlign=middle;whiteSpace=wrap;rounded=0;" vertex="1" parent="1">
          <mxGeometry x="494" y="80" width="60" height="30" as="geometry" />
        </mxCell>
        <mxCell id="9wFDw3RkWv6zLkpVCdXA-27" value="HBase" style="shape=cylinder3;whiteSpace=wrap;html=1;boundedLbl=1;backgroundOutline=1;size=15;" vertex="1" parent="1">
          <mxGeometry x="30" y="240" width="60" height="60" as="geometry" />
        </mxCell>
        <mxCell id="9wFDw3RkWv6zLkpVCdXA-55" value="api.affiliate.tt" style="rounded=1;whiteSpace=wrap;html=1;" vertex="1" parent="1">
          <mxGeometry x="190" y="380" width="120" height="60" as="geometry" />
        </mxCell>
        <mxCell id="9wFDw3RkWv6zLkpVCdXA-56" value="srv.affiliate.tt" style="rounded=1;whiteSpace=wrap;html=1;" vertex="1" parent="1">
          <mxGeometry x="464" y="380" width="120" height="60" as="geometry" />
        </mxCell>
        <mxCell id="9wFDw3RkWv6zLkpVCdXA-81" value="" style="rounded=0;whiteSpace=wrap;html=1;dashed=1;" vertex="1" parent="1">
          <mxGeometry x="140" y="520" width="500" height="300" as="geometry" />
        </mxCell>
        <mxCell id="9wFDw3RkWv6zLkpVCdXA-83" value="信息流" style="rounded=0;whiteSpace=wrap;html=1;" vertex="1" parent="1">
          <mxGeometry x="200" y="555" width="80" height="35" as="geometry" />
        </mxCell>
        <mxCell id="9wFDw3RkWv6zLkpVCdXA-84" value="渠道层" style="text;html=1;strokeColor=none;fillColor=none;align=center;verticalAlign=middle;whiteSpace=wrap;rounded=0;" vertex="1" parent="1">
          <mxGeometry x="140" y="557.5" width="60" height="30" as="geometry" />
        </mxCell>
        <mxCell id="9wFDw3RkWv6zLkpVCdXA-85" value="商店" style="rounded=0;whiteSpace=wrap;html=1;" vertex="1" parent="1">
          <mxGeometry x="310" y="555" width="80" height="35" as="geometry" />
        </mxCell>
        <mxCell id="9wFDw3RkWv6zLkpVCdXA-86" value="iOS" style="rounded=0;whiteSpace=wrap;html=1;" vertex="1" parent="1">
          <mxGeometry x="414" y="555" width="80" height="35" as="geometry" />
        </mxCell>
        <mxCell id="9wFDw3RkWv6zLkpVCdXA-87" value="KOL 渠道" style="rounded=0;whiteSpace=wrap;html=1;" vertex="1" parent="1">
          <mxGeometry x="520" y="555" width="80" height="35" as="geometry" />
        </mxCell>
        <mxCell id="9wFDw3RkWv6zLkpVCdXA-88" value="归因层" style="text;html=1;strokeColor=none;fillColor=none;align=center;verticalAlign=middle;whiteSpace=wrap;rounded=0;" vertex="1" parent="1">
          <mxGeometry x="140" y="630" width="60" height="30" as="geometry" />
        </mxCell>
        <mxCell id="9wFDw3RkWv6zLkpVCdXA-89" value="点击归因" style="rounded=0;whiteSpace=wrap;html=1;" vertex="1" parent="1">
          <mxGeometry x="200" y="625" width="80" height="35" as="geometry" />
        </mxCell>
        <mxCell id="9wFDw3RkWv6zLkpVCdXA-90" value="包归因" style="rounded=0;whiteSpace=wrap;html=1;" vertex="1" parent="1">
          <mxGeometry x="310" y="625" width="80" height="35" as="geometry" />
        </mxCell>
        <mxCell id="9wFDw3RkWv6zLkpVCdXA-91" value="ASA 归因" style="rounded=0;whiteSpace=wrap;html=1;" vertex="1" parent="1">
          <mxGeometry x="414" y="625" width="80" height="35" as="geometry" />
        </mxCell>
        <mxCell id="9wFDw3RkWv6zLkpVCdXA-92" value="模糊归因" style="rounded=0;whiteSpace=wrap;html=1;" vertex="1" parent="1">
          <mxGeometry x="520" y="625" width="80" height="35" as="geometry" />
        </mxCell>
        <mxCell id="9wFDw3RkWv6zLkpVCdXA-93" value="回传层" style="text;html=1;strokeColor=none;fillColor=none;align=center;verticalAlign=middle;whiteSpace=wrap;rounded=0;" vertex="1" parent="1">
          <mxGeometry x="140" y="690" width="60" height="30" as="geometry" />
        </mxCell>
        <mxCell id="9wFDw3RkWv6zLkpVCdXA-94" value="是否回传" style="rounded=0;whiteSpace=wrap;html=1;" vertex="1" parent="1">
          <mxGeometry x="200" y="687.5" width="80" height="35" as="geometry" />
        </mxCell>
        <mxCell id="9wFDw3RkWv6zLkpVCdXA-95" value="正位回传" style="rounded=0;whiteSpace=wrap;html=1;" vertex="1" parent="1">
          <mxGeometry x="310" y="687.5" width="80" height="35" as="geometry" />
        </mxCell>
        <mxCell id="9wFDw3RkWv6zLkpVCdXA-96" value="错位回传" style="rounded=0;whiteSpace=wrap;html=1;" vertex="1" parent="1">
          <mxGeometry x="414" y="687.5" width="80" height="35" as="geometry" />
        </mxCell>
        <mxCell id="9wFDw3RkWv6zLkpVCdXA-97" value="个性化回传" style="rounded=0;whiteSpace=wrap;html=1;" vertex="1" parent="1">
          <mxGeometry x="520" y="687.5" width="80" height="35" as="geometry" />
        </mxCell>
        <mxCell id="9wFDw3RkWv6zLkpVCdXA-98" value="承接层" style="text;html=1;strokeColor=none;fillColor=none;align=center;verticalAlign=middle;whiteSpace=wrap;rounded=0;" vertex="1" parent="1">
          <mxGeometry x="140" y="750" width="60" height="30" as="geometry" />
        </mxCell>
        <mxCell id="9wFDw3RkWv6zLkpVCdXA-99" value="基于渠道" style="rounded=0;whiteSpace=wrap;html=1;" vertex="1" parent="1">
          <mxGeometry x="200" y="750" width="80" height="35" as="geometry" />
        </mxCell>
        <mxCell id="9wFDw3RkWv6zLkpVCdXA-100" value="基于账号" style="rounded=0;whiteSpace=wrap;html=1;" vertex="1" parent="1">
          <mxGeometry x="310" y="750" width="80" height="35" as="geometry" />
        </mxCell>
        <mxCell id="9wFDw3RkWv6zLkpVCdXA-101" value="基于素材" style="rounded=0;whiteSpace=wrap;html=1;" vertex="1" parent="1">
          <mxGeometry x="414" y="750" width="80" height="35" as="geometry" />
        </mxCell>
        <mxCell id="9wFDw3RkWv6zLkpVCdXA-102" value="……" style="rounded=0;whiteSpace=wrap;html=1;" vertex="1" parent="1">
          <mxGeometry x="520" y="750" width="80" height="35" as="geometry" />
        </mxCell>
        <mxCell id="9wFDw3RkWv6zLkpVCdXA-112" style="edgeStyle=orthogonalEdgeStyle;rounded=0;orthogonalLoop=1;jettySize=auto;html=1;entryX=0;entryY=0.5;entryDx=0;entryDy=0;" edge="1" parent="1" source="9wFDw3RkWv6zLkpVCdXA-104" target="9wFDw3RkWv6zLkpVCdXA-105">
          <mxGeometry relative="1" as="geometry" />
        </mxCell>
        <mxCell id="9wFDw3RkWv6zLkpVCdXA-104" value="用户事件查找点击" style="rounded=0;whiteSpace=wrap;html=1;" vertex="1" parent="1">
          <mxGeometry x="710" y="245" width="80" height="35" as="geometry" />
        </mxCell>
        <mxCell id="9wFDw3RkWv6zLkpVCdXA-113" style="edgeStyle=orthogonalEdgeStyle;rounded=0;orthogonalLoop=1;jettySize=auto;html=1;entryX=0.5;entryY=0;entryDx=0;entryDy=0;" edge="1" parent="1" source="9wFDw3RkWv6zLkpVCdXA-105" target="9wFDw3RkWv6zLkpVCdXA-106">
          <mxGeometry relative="1" as="geometry" />
        </mxCell>
        <mxCell id="9wFDw3RkWv6zLkpVCdXA-105" value="解析点击事件" style="rounded=0;whiteSpace=wrap;html=1;" vertex="1" parent="1">
          <mxGeometry x="840" y="245" width="80" height="35" as="geometry" />
        </mxCell>
        <mxCell id="9wFDw3RkWv6zLkpVCdXA-114" style="edgeStyle=orthogonalEdgeStyle;rounded=0;orthogonalLoop=1;jettySize=auto;html=1;entryX=1;entryY=0.5;entryDx=0;entryDy=0;" edge="1" parent="1" source="9wFDw3RkWv6zLkpVCdXA-106" target="9wFDw3RkWv6zLkpVCdXA-107">
          <mxGeometry relative="1" as="geometry" />
        </mxCell>
        <mxCell id="9wFDw3RkWv6zLkpVCdXA-106" value="判定归因结果" style="rounded=0;whiteSpace=wrap;html=1;" vertex="1" parent="1">
          <mxGeometry x="840" y="315" width="80" height="35" as="geometry" />
        </mxCell>
        <mxCell id="9wFDw3RkWv6zLkpVCdXA-115" style="edgeStyle=orthogonalEdgeStyle;rounded=0;orthogonalLoop=1;jettySize=auto;html=1;entryX=0.5;entryY=0;entryDx=0;entryDy=0;" edge="1" parent="1" source="9wFDw3RkWv6zLkpVCdXA-107" target="9wFDw3RkWv6zLkpVCdXA-108">
          <mxGeometry relative="1" as="geometry" />
        </mxCell>
        <mxCell id="9wFDw3RkWv6zLkpVCdXA-107" value="判定回传逻辑" style="rounded=0;whiteSpace=wrap;html=1;" vertex="1" parent="1">
          <mxGeometry x="710" y="315" width="80" height="35" as="geometry" />
        </mxCell>
        <mxCell id="9wFDw3RkWv6zLkpVCdXA-116" style="edgeStyle=orthogonalEdgeStyle;rounded=0;orthogonalLoop=1;jettySize=auto;html=1;entryX=0;entryY=0.5;entryDx=0;entryDy=0;" edge="1" parent="1" source="9wFDw3RkWv6zLkpVCdXA-108" target="9wFDw3RkWv6zLkpVCdXA-109">
          <mxGeometry relative="1" as="geometry" />
        </mxCell>
        <mxCell id="9wFDw3RkWv6zLkpVCdXA-108" value="回传" style="rounded=0;whiteSpace=wrap;html=1;" vertex="1" parent="1">
          <mxGeometry x="710" y="385" width="80" height="35" as="geometry" />
        </mxCell>
        <mxCell id="9wFDw3RkWv6zLkpVCdXA-109" value="同步数仓" style="rounded=0;whiteSpace=wrap;html=1;" vertex="1" parent="1">
          <mxGeometry x="840" y="385" width="80" height="35" as="geometry" />
        </mxCell>
        <mxCell id="9wFDw3RkWv6zLkpVCdXA-118" value="Pool" style="swimlane;childLayout=stackLayout;resizeParent=1;resizeParentMax=0;startSize=20;horizontal=0;horizontalStack=1;" vertex="1" parent="1">
          <mxGeometry x="80" y="1380" width="740" height="480" as="geometry" />
        </mxCell>
        <mxCell id="9wFDw3RkWv6zLkpVCdXA-119" value="php clicknotify" style="swimlane;startSize=20;" vertex="1" parent="9wFDw3RkWv6zLkpVCdXA-118">
          <mxGeometry x="20" width="120" height="480" as="geometry" />
        </mxCell>
        <mxCell id="9wFDw3RkWv6zLkpVCdXA-120" value="媒体点击" style="rounded=1;whiteSpace=wrap;html=1;" vertex="1" parent="9wFDw3RkWv6zLkpVCdXA-119">
          <mxGeometry x="10" y="88" width="100" height="50" as="geometry" />
        </mxCell>
        <mxCell id="9wFDw3RkWv6zLkpVCdXA-121" value="php run" style="swimlane;startSize=20;" vertex="1" parent="9wFDw3RkWv6zLkpVCdXA-118">
          <mxGeometry x="140" width="120" height="480" as="geometry" />
        </mxCell>
        <mxCell id="9wFDw3RkWv6zLkpVCdXA-122" value="用户事件" style="rounded=1;whiteSpace=wrap;html=1;" vertex="1" parent="9wFDw3RkWv6zLkpVCdXA-121">
          <mxGeometry x="10" y="40" width="100" height="50" as="geometry" />
        </mxCell>
        <mxCell id="9wFDw3RkWv6zLkpVCdXA-123" value="HBase" style="swimlane;startSize=20;" vertex="1" parent="9wFDw3RkWv6zLkpVCdXA-118">
          <mxGeometry x="260" width="120" height="480" as="geometry" />
        </mxCell>
        <mxCell id="9wFDw3RkWv6zLkpVCdXA-124" value="数仓" style="swimlane;startSize=20;" vertex="1" parent="9wFDw3RkWv6zLkpVCdXA-118">
          <mxGeometry x="380" width="120" height="480" as="geometry" />
        </mxCell>
        <mxCell id="9wFDw3RkWv6zLkpVCdXA-125" value="api.affiliate.tt" style="swimlane;startSize=20;" vertex="1" parent="9wFDw3RkWv6zLkpVCdXA-118">
          <mxGeometry x="500" width="120" height="480" as="geometry" />
        </mxCell>
        <mxCell id="9wFDw3RkWv6zLkpVCdXA-126" value="api.affiliate.tt" style="swimlane;startSize=20;" vertex="1" parent="9wFDw3RkWv6zLkpVCdXA-118">
          <mxGeometry x="620" width="120" height="480" as="geometry" />
        </mxCell>
      </root>
    </mxGraphModel>
  </diagram>
</mxfile>
